#!OML:ASF F:\VICON\USERDATA\INSTALL\rory3\rory3.ASF
:FULLY-SPECIFIED
:DEGREES
293
root 5.35213 15.8179 -4.04835 -178.322 50.1486 -175.031
lowerback 7.47694 -0.363288 1.34399
upperback -1.50312 -0.298624 0.87865
thorax -5.76753 -0.17366 0.196322
lowerneck -11.9847 -8.21461 -12.5714
upperneck 22.281 -10.328 8.35289
head 10.1941 -4.80222 3.71329
rclavicle -2.06581e-014 -5.76476e-015
rhumerus -40.913 -6.10369 -81.9463
rradius 25.3123
rwrist 12.9592
rhand -17.183 15.3216
rfingers 7.12502
rthumb 9.05875 -14.4639
lclavicle -2.06581e-014 -5.76476e-015
lhumerus -36.5287 17.5718 74.0567
lradius 18.4224
lwrist -12.4245
lhand -10.6928 12.947
lfingers 7.12502
lthumb 15.3164 42.3598
rfemur -15.3783 5.50023 29.3024
rtibia 29.6343
rfoot -9.4998 -16.0736
rtoes 2.15973
lfemur -3.70312 3.04488 -17.2654
ltibia 59.8327
lfoot 20.4201 12.1178
ltoes 4.09274
294
root 5.4424 15.8126 -4.10036 -178.165 50.1618 -174.812
lowerback 7.53244 -0.328377 1.51349
upperback -1.45626 -0.234232 0.884958
thorax -5.75034 -0.147015 0.0997315
lowerneck -12.0096 -8.2353 -12.5477
upperneck 22.2726 -10.3617 8.36058
head 10.1988 -4.81462 3.70617
rclavicle 4.01607e-014 -3.97569e-016
rhumerus -40.5512 -5.70113 -82.1537
rradius 25.5958
rwrist 12.5711
rhand -17.012 14.0199
rfingers 7.12502
rthumb 9.22372 -15.7584
lclavicle 4.01607e-014 -3.97569e-016
lhumerus -36.6405 17.5923 73.9757
lradius 18.6734
lwrist -12.1707
lhand -10.782 12.8776
lfingers 7.12502
lthumb 15.2305 42.297
rfemur -15.0001 5.35389 29.5933
rtibia 29.6944
rfoot -9.72168 -16.1146
rtoes 1.28166
lfemur -5.01853 3.12048 -17.0803
ltibia 61.3356
lfoot 19.2552 12.0517
ltoes 5.38715
295
root 5.53534 15.8077 -4.14922 -178.186 50.2351 -174.752
lowerback 7.63009 -0.254461 1.50782
upperback -1.37995 -0.136652 0.860551
thorax -5.72476 -0.0988104 0.0654439
lowerneck -12.0457 -8.25621 -12.4908
upperneck 22.2757 -10.4045 8.37809
head 10.2092 -4.82661 3.69573
rclavicle 5.93652e-014 1.74931e-014
rhumerus -40.1791 -5.58775 -82.2475
rradius 25.7895
rwrist 12.5225
rhand -17.0135 13.4858
rfingers 7.12502
rthumb 9.22236 -16.2925
lclavicle 5.93652e-014 1.74931e-014
lhumerus -36.6574 17.2962 74.0803
lradius 18.9724
lwrist -11.4369
lhand -10.9236 12.898
lfingers 7.12502
lthumb 15.094 42.3277
rfemur -14.5129 5.39472 29.7865
rtibia 29.7137
rfoot -9.90672 -16.2958
rtoes 1.14377
lfemur -6.25098 3.17844 -17.0375
ltibia 62.7286
lfoot 17.414 11.5745
ltoes 3.1731
296
root 5.62881 15.8059 -4.19872 -178.112 50.3156 -174.482
lowerback 7.7821 -0.180808 1.60103
upperback -1.29969 -0.023441 0.902802
thorax -5.72592 -0.0445192 0.0430485
lowerneck -11.9859 -8.25429 -12.5015
upperneck 22.2551 -10.4154 8.42854
head 10.1952 -4.82814 3.71579
rclavicle -5.42372e-014 -9.74045e-015
rhumerus -39.8618 -5.42539 -82.2761
rradius 25.9202
rwrist 12.4056
rhand -17.1278 13.6123
rfingers 7.12502
rthumb 9.112 -16.1708
lclavicle -5.42372e-014 -9.74045e-015
lhumerus -36.7366 16.809 74.3405
lradius 19.3849
lwrist -10.5587
lhand -10.9616 13.1571
lfingers 7.12502
lthumb 15.0574 42.5895
rfemur -13.9076 5.41903 30.135
rtibia 29.7052
rfoot -10.1743 -16.4292
rtoes 1.20706
lfemur -7.46559 3.32617 -16.8392
ltibia 64.0108
lfoot 15.5813 10.6232
ltoes -0.373085
297
root 5.71777 15.8039 -4.25139 -177.913 50.3044 -174.177
lowerback 7.85214 -0.128131 1.78212
upperback -1.26209 0.0712271 0.968082
thorax -5.72539 -0.0017678 -0.0026934
lowerneck -11.8351 -8.27675 -12.6699
upperneck 22.1586 -10.4555 8.56796
head 10.1554 -4.85035 3.79071
rclavicle 2.39008e-014 8.94531e-015
rhumerus -39.5944 -5.18268 -82.2483
rradius 26.0552
rwrist 12.1561
rhand -17.335 14.3099
rfingers 7.12502
rthumb 8.91207 -15.4819
lclavicle 2.39008e-014 8.94531e-015
lhumerus -36.8658 16.4229 74.5972
lradius 19.8228
lwrist -9.84204
lhand -11.0114 13.3782
lfingers 7.12502
lthumb 15.0095 42.8142
rfemur -13.4329 5.28884 30.4644
rtibia 29.7085
rfoot -10.8119 -16.3119
rtoes 1.62711
lfemur -8.79222 3.33388 -16.6568
ltibia 65.1558
lfoot 13.5867 10.157
ltoes -2.15298
298
root 5.8043 15.7984 -4.29997 -177.682 50.241 -173.879
lowerback 7.90753 -0.101469 1.95647
upperback -1.21219 0.128701 1.01204
thorax -5.70374 0.0226774 -0.0622937
lowerneck -11.7875 -8.31003 -12.7393
upperneck 22.1069 -10.511 8.65207
head 10.1439 -4.87459 3.82459
rclavicle -2.08817e-014 -9.74045e-015
rhumerus -39.2398 -4.94865 -82.275
rradius 26.2729
rwrist 11.9866
rhand -17.7506 14.9536
rfingers 7.12502
rthumb 8.51101 -14.8549
lclavicle -2.08817e-014 -9.74045e-015
lhumerus -36.9568 16.1477 74.7387
lradius 20.2823
lwrist -9.15655
lhand -10.9344 13.2592
lfingers 7.12502
lthumb 15.0837 42.6897
rfemur -13.0632 5.25056 30.7946
rtibia 29.7425
rfoot -11.3106 -16.3857
rtoes 1.58065
lfemur -10.1626 3.28579 -16.4559
ltibia 66.1549
lfoot 11.6129 10.0513
ltoes -3.23795
